<svg xmlns="http://www.w3.org/2000/svg" viewBox="0 0 1711.89 1882.05"><defs>
    <style>.cls-1{fill:#fff;}</style></defs><g id="Layer_2" data-name="Layer 2">
    <g id="Layer_1-2" data-name="Layer 1">
        <path class="cls-1" d="M1700,301.45l-7.61-46.12L856,0,19.51,255.33,11.9,301.45C10.14,312.08-30.24,565.5,48.53,884.76c73,295.71,266,705.42,771.68,978L856,1882.05l35.74-19.27c505.62-272.6,698.72-682.31,771.67-978C1742.13,565.5,1701.76,312.08,1700,301.45Zm-121,562.49c-68.47,277.56-249.5,661.84-723,919.32-473.49-257.48-654.53-641.76-723-919.32C64.64,587.09,90.56,365.35,96.61,322.71L856,90.91l759.29,231.78C1621,364.75,1646.49,590.2,1578.94,863.94Z"/>
        <path class="cls-1" d="M622.88,1086.45v182.87c-136.29-160.39-204.15-331-237.9-467.64A1338.21,1338.21,0,0,1,346.59,517.8l276.29-84.37v208H808.3V182.92L622.88,239.66,165.07,379.29c-7,83.62-11.5,258.48,39.86,466.89,49.88,202.3,163.17,464.86,418,686.44a1464.12,1464.12,0,0,0,185.42,137v-583.2Z"/>
        <path class="cls-1" d="M1539.36,666.71c15.58-127,11.87-229.18,7.05-287.4L1088.6,239.68,903.17,182.94V1669.67a1465,1465,0,0,0,185.43-137c166.32-144.63,272.2-306.69,339.69-458q25.31-57,43.76-111.26c14.09-40.61,25.4-79.92,34.49-117.19,5.75-23.17,10.75-46,15-68.23H1167V963.39h107a1127.77,1127.77,0,0,1-52.48,111.26,1118.8,1118.8,0,0,1-132.94,194.69V433.45l276.28,84.37a1304,1304,0,0,1-12.43,148.89Z"/></g></g></svg>