<svg xmlns="http://www.w3.org/2000/svg" xmlns:xlink="http://www.w3.org/1999/xlink" viewBox="0 0 5000 3500"><defs><style>.cls-1{fill:url(#radial-gradient);}.cls-2{fill:#fff;}</style><radialGradient id="radial-gradient" cx="2500" cy="1750" r="1380.52" gradientUnits="userSpaceOnUse"><stop offset="0" stop-color="#263e41"/><stop offset="1" stop-color="#050505"/></radialGradient></defs><g id="Layer_2" data-name="Layer 2"><g id="Layer_1-2" data-name="Layer 1"><rect class="cls-1" width="5000" height="3500"/><path class="cls-2" d="M3344.05,1110.42l-7.62-46.11L2500,809l-836.43,255.33-7.62,46.11c-1.76,10.63-42.14,264,36.63,583.32,73,295.7,266.06,705.42,771.68,978L2500,2691l35.75-19.27c505.62-272.59,698.71-682.31,771.66-978C3386.18,1374.47,3345.81,1121.05,3344.05,1110.42ZM3223,1672.91c-68.48,277.57-249.51,661.85-723,919.32-473.49-257.47-654.53-641.76-723-919.32-68.31-276.84-42.39-498.59-36.34-541.23L2500,899.88l759.3,231.79C3265,1173.72,3290.54,1399.17,3223,1672.91Z"/><path class="cls-2" d="M2266.93,1895.42v182.87c-136.29-160.39-204.15-331-237.9-467.63a1338.2,1338.2,0,0,1-38.38-283.89l276.28-84.37v208h185.42V991.9l-185.42,56.74-457.81,139.62c-7,83.63-11.5,258.48,39.86,466.9,49.88,202.3,163.18,464.85,417.95,686.44a1465.77,1465.77,0,0,0,185.42,137v-583.2Z"/><path class="cls-2" d="M3183.41,1475.69c15.58-127,11.87-229.18,7.05-287.41l-457.81-139.62-185.42-56.74V2478.65a1466.53,1466.53,0,0,0,185.42-137c166.32-144.63,272.2-306.69,339.7-458q25.3-57,43.75-111.25c14.1-40.61,25.41-79.92,34.49-117.19,5.75-23.18,10.76-46,15-68.24H2811.08v185.43h107a1133.89,1133.89,0,0,1-185.42,306V1242.43l276.28,84.36a1303.78,1303.78,0,0,1-12.42,148.9Z"/></g></g></svg>